# xmcd
#
# Track frame offsets:
#	150
#	19096
#	37784
#	56964
#	82207
#	108759
#	122209
#	150093
#	164988
#	182584
#	199842
#
# Disc length: 3110 seconds
#
# Revision: 1
# Processed by: cddbd v1.5.1PL0 Copyright (c) Steve Scherf et al.
# Submitted via: audiograbber 1.83.01
#
DISCID=8d0c240b
DTITLE=Lordan - Serrato - Eyes of a Woman
DYEAR=2004
DGENRE=Blues
TTITLE0=The Real Thing
TTITLE1=The Healing Touch
TTITLE2=Simple Life
TTITLE3=Eyes of a Woman
TTITLE4=BL's Groove
TTITLE5=Into Money
TTITLE6=Your Guilty Conscience
TTITLE7=My Spirit Dances
TTITLE8=Room Full of Mirrors
TTITLE9=Last Time Around
TTITLE10=Blues For Jimmy
EXTD=
EXTT0=
EXTT1=
EXTT2=
EXTT3=
EXTT4=
EXTT5=
EXTT6=
EXTT7=
EXTT8=
EXTT9=
EXTT10=
PLAYORDER=
